<?xml version="1.0" encoding="iso-8859-1"?>
<!-- Generator: Adobe Illustrator 19.1.0, SVG Export Plug-In . SVG Version: 6.00 Build 0)  -->
<svg version="1.1" id="Capa_1" xmlns="http://www.w3.org/2000/svg" xmlns:xlink="http://www.w3.org/1999/xlink" x="0px" y="0px"
	 viewBox="0 0 420.704 420.704" style="enable-background:new 0 0 420.704 420.704;" xml:space="preserve">
<g>
	<path style="fill:#CE0649;" d="M187.877,336.484h44.99c-3.3,9.25-12.14,15.88-22.49,15.88
		C200.017,352.364,191.177,345.734,187.877,336.484z"/>
	<path style="fill:#F7F1DA;" d="M382.007,255.564c0,11.56-7.58,21.37-18.02,24.75c-0.08-16.68-0.72-33.37-1.91-50.02
		C373.497,233.034,382.007,243.324,382.007,255.564z"/>
	<path style="fill:#F7F1DA;" d="M58.647,230.294c-1.18,16.66-1.81,33.34-1.89,50.02c-10.44-3.38-18.02-13.19-18.02-24.75
		C38.737,243.324,47.237,233.044,58.647,230.294z"/>
	<path style="fill:#F7F1DA;" d="M348.007,283.974v46.57c0,13.28-5.47,26.33-15.01,35.82c-9.38,9.32-21.59,14.4-34.5,14.34
		c-10.98-0.07-21.35-3.68-30-10.45c-1.99-1.55-4.59-2.08-7.02-1.42c-2.44,0.66-4.42,2.43-5.35,4.77
		c-7.48,18.9-25.45,31.1-45.75,31.1c-20.31,0-38.28-12.2-45.76-31.1c-0.93-2.34-2.91-4.11-5.35-4.77c-0.69-0.19-1.39-0.28-2.09-0.28
		c-1.77,0-3.51,0.59-4.93,1.7c-8.65,6.77-19.02,10.38-30,10.45c-12.9,0.06-25.12-5.02-34.5-14.34
		c-9.54-9.49-15.01-22.54-15.01-35.82v-46.76c0-49.58,5.02-99.33,14.93-147.92c6.83,11.52,19.15,18.59,32.67,18.59
		c7.23,0,14.31-2.1,20.35-5.93c7.1,7.51,17.06,11.93,27.64,11.93c7.24,0,14.24-2.05,20.26-5.86c6.03,3.81,13.04,5.86,20.29,5.86
		c0.49,0,0.98-0.01,1.47-0.03c0.49,0.02,0.99,0.03,1.48,0.03c7.25,0,14.25-2.05,20.28-5.86c6.03,3.81,13.03,5.86,20.27,5.86
		c10.58,0,20.54-4.42,27.63-11.93c6.05,3.83,13.13,5.93,20.36,5.93c13.52,0,25.84-7.07,32.67-18.59
		C342.977,184.504,348.007,234.334,348.007,283.974z M312.737,301.974c3.13-3.13,3.13-8.19,0-11.32c-3.12-3.12-8.19-3.12-11.31,0
		c-7.51,7.51-19.72,7.51-27.22,0c-3.13-3.12-8.19-3.12-11.32,0c-3.12,3.13-3.12,8.19,0,11.32c6.88,6.87,15.9,10.3,24.93,10.3
		C296.837,312.274,305.867,308.844,312.737,301.974z M310.217,237.374c3.13-3.12,3.13-8.19,0-11.31c-13.74-13.75-36.1-13.75-49.85,0
		c-3.12,3.12-3.12,8.19,0,11.31c3.13,3.13,8.19,3.13,11.32,0c7.5-7.5,19.71-7.5,27.22,0c1.56,1.56,3.61,2.34,5.66,2.34
		C306.607,239.714,308.657,238.934,310.217,237.374z M301.817,268.494c0-7.73-6.27-14-14-14c-7.73,0-14,6.27-14,14
		c0,7.73,6.27,14,14,14C295.547,282.494,301.817,276.224,301.817,268.494z M250.247,328.484c0-4.41-3.58-8-8-8h-63.75
		c-4.42,0-8,3.59-8,8c0,21.99,17.89,39.88,39.88,39.88C232.357,368.364,250.247,350.474,250.247,328.484z M159.617,237.374
		c3.13-3.12,3.13-8.19,0-11.31c-13.74-13.75-36.1-13.75-49.85,0c-3.12,3.12-3.12,8.19,0,11.31c1.57,1.56,3.61,2.34,5.66,2.34
		c2.05,0,4.09-0.78,5.66-2.34c7.5-7.5,19.71-7.5,27.22,0C151.427,240.504,156.497,240.504,159.617,237.374z M157.857,301.974
		c3.12-3.13,3.12-8.19,0-11.32c-3.13-3.12-8.19-3.12-11.32,0c-7.5,7.51-19.71,7.51-27.22,0c-3.12-3.12-8.19-3.12-11.31,0
		c-3.13,3.13-3.13,8.19,0,11.32c6.87,6.87,15.89,10.3,24.92,10.3S150.987,308.844,157.857,301.974z M146.927,268.494
		c0-7.73-6.27-14-14-14c-7.73,0-14,6.27-14,14c0,7.73,6.27,14,14,14C140.657,282.494,146.927,276.224,146.927,268.494z"/>
	<path style="fill:#D6D6D6;" d="M393.797,214.164c0,5.44-2.02,10.6-5.52,14.56c-6.76-8.11-16.51-13.64-27.55-14.88
		c-2.61-28.07-6.78-56.01-12.5-83.57c-1.24-6-6.15-10.65-12.19-11.57c-0.17-0.03-0.34-0.05-0.51-0.08
		c-6.31-1.12-12.58,2.07-15.6,7.91c-3.8,7.35-11.29,11.92-19.56,11.92c-6.1,0-11.78-2.45-15.98-6.89c-1.75-1.85-4.27-2.76-6.8-2.45
		c-2.53,0.32-4.75,1.82-6,4.04c-3.89,6.97-11.25,11.3-19.21,11.3c-5.51,0-10.79-2.06-14.86-5.79c-3.06-2.81-7.76-2.81-10.82,0
		c-4.07,3.73-9.35,5.79-14.87,5.79c-0.37,0-0.73-0.01-1.09-0.03c-0.26-0.01-0.51-0.01-0.77,0c-0.36,0.02-0.73,0.03-1.09,0.03
		c-5.52,0-10.81-2.06-14.87-5.79c-3.06-2.81-7.76-2.81-10.82,0c-4.08,3.73-9.35,5.79-14.86,5.79c-7.96,0-15.32-4.33-19.22-11.3
		c-1.24-2.22-3.46-3.72-5.99-4.04c-2.53-0.31-5.05,0.6-6.8,2.45c-4.21,4.44-9.88,6.89-15.98,6.89c-8.27,0-15.76-4.57-19.56-11.92
		c-3.02-5.84-9.29-9.02-15.61-7.91c-0.16,0.03-0.32,0.05-0.49,0.08c-6.05,0.92-10.96,5.58-12.2,11.59l-0.04,0.16
		c-5.69,27.5-9.84,55.38-12.44,83.39c-11.04,1.25-20.8,6.78-27.55,14.91c-3.51-3.97-5.54-9.14-5.54-14.59
		c0-9.28,5.88-17.61,14.62-20.72c3.14-1.12,5.26-4.07,5.31-7.41c0.06-3.33-1.96-6.35-5.06-7.57c-8.47-3.34-13.94-11.38-13.94-20.47
		c0-8.32,4.62-15.84,12.06-19.62c2.2-1.12,3.76-3.19,4.23-5.61c0.46-2.43-0.21-4.93-1.84-6.79c-3.51-4.02-5.45-9.16-5.45-14.48
		c0-11.75,9.19-21.4,20.92-21.97c2.96-0.14,5.6-1.91,6.86-4.6c1.25-2.68,0.92-5.84-0.86-8.21c-2.89-3.83-4.42-8.39-4.42-13.21
		c0-12.13,9.87-22,22-22c2.59,0,5.13,0.45,7.54,1.33c2.07,0.75,4.35,0.62,6.32-0.37c1.97-0.98,3.44-2.73,4.08-4.83
		c2.78-9.2,11.44-15.63,21.05-15.63c6.11,0,11.79,2.45,15.99,6.89c1.75,1.86,4.27,2.77,6.8,2.45s4.76-1.82,6-4.04
		c3.89-6.97,11.25-11.3,19.21-11.3c5.51,0,10.79,2.06,14.85,5.79c3.06,2.81,7.76,2.81,10.82,0c4.07-3.73,9.36-5.79,14.88-5.79
		c0.33,0,0.66,0,0.99,0.02c0.32,0.02,0.64,0.02,0.97,0c0.33-0.02,0.66-0.02,0.99-0.02c5.52,0,10.8,2.06,14.87,5.79
		c3.06,2.81,7.76,2.81,10.82,0c4.07-3.73,9.35-5.79,14.85-5.79c7.97,0,15.34,4.33,19.23,11.3c1.24,2.22,3.46,3.72,5.99,4.04
		s5.06-0.6,6.81-2.45c4.2-4.44,9.87-6.89,15.97-6.89c9.77,0,18.24,6.28,21.06,15.63c0.64,2.1,2.12,3.85,4.09,4.84
		c1.97,0.98,4.25,1.11,6.32,0.35c2.4-0.88,4.94-1.32,7.53-1.32c12.13,0,22,9.87,22,22c0,4.81-1.53,9.38-4.42,13.22
		c-1.78,2.36-2.11,5.52-0.85,8.21c1.26,2.68,3.89,4.45,6.85,4.59c11.73,0.57,20.92,10.22,20.92,21.97c0,5.32-1.93,10.46-5.45,14.48
		c-1.62,1.86-2.3,4.36-1.83,6.78c0.46,2.43,2.02,4.5,4.22,5.62c7.44,3.79,12.06,11.31,12.06,19.62c0,9.09-5.47,17.13-13.94,20.47
		c-3.1,1.22-5.11,4.24-5.06,7.57c0.06,3.34,2.18,6.28,5.31,7.4C387.927,196.554,393.797,204.884,393.797,214.164z"/>
	<path style="fill:#DBCFA9;" d="M312.737,290.654c3.13,3.13,3.13,8.19,0,11.32c-6.87,6.87-15.9,10.3-24.92,10.3
		c-9.03,0-18.05-3.43-24.93-10.3c-3.12-3.13-3.12-8.19,0-11.32c3.13-3.12,8.19-3.12,11.32,0c7.5,7.51,19.71,7.51,27.22,0
		C304.547,287.534,309.617,287.534,312.737,290.654z"/>
	<path style="fill:#A3A29F;" d="M310.217,226.064c3.13,3.12,3.13,8.19,0,11.31c-1.56,1.56-3.61,2.34-5.65,2.34
		c-2.05,0-4.1-0.78-5.66-2.34c-7.51-7.5-19.72-7.5-27.22,0c-3.13,3.13-8.19,3.13-11.32,0c-3.12-3.12-3.12-8.19,0-11.31
		C274.117,212.314,296.477,212.314,310.217,226.064z"/>
	<circle style="fill:#3F7C8E;" cx="287.817" cy="268.494" r="14"/>
	<path style="fill:#333333;" d="M242.247,320.484c4.42,0,8,3.59,8,8c0,21.99-17.89,39.88-39.87,39.88
		c-21.99,0-39.88-17.89-39.88-39.88c0-4.41,3.58-8,8-8H242.247z M232.867,336.484h-44.99c3.3,9.25,12.14,15.88,22.5,15.88
		C220.727,352.364,229.567,345.734,232.867,336.484z"/>
	<path style="fill:#333333;" d="M211.827,144.454c5.52,0,10.8-2.06,14.87-5.79c3.06-2.81,7.76-2.81,10.82,0
		c4.07,3.73,9.35,5.79,14.86,5.79c7.96,0,15.32-4.33,19.21-11.3c1.25-2.22,3.47-3.72,6-4.04c2.53-0.31,5.05,0.6,6.8,2.45
		c4.2,4.44,9.88,6.89,15.98,6.89c8.27,0,15.76-4.57,19.56-11.92c3.02-5.84,9.29-9.03,15.6-7.91c0.17,0.03,0.34,0.05,0.51,0.08
		c6.04,0.92,10.95,5.57,12.19,11.57c5.72,27.56,9.89,55.5,12.5,83.57c11.04,1.24,20.79,6.77,27.55,14.88
		c3.5-3.96,5.52-9.12,5.52-14.56c0-9.28-5.87-17.61-14.62-20.73c-3.13-1.12-5.25-4.06-5.31-7.4c-0.05-3.33,1.96-6.35,5.06-7.57
		c8.47-3.34,13.94-11.38,13.94-20.47c0-8.31-4.62-15.83-12.06-19.62c-2.2-1.12-3.76-3.19-4.22-5.62c-0.47-2.42,0.21-4.92,1.83-6.78
		c3.52-4.02,5.45-9.16,5.45-14.48c0-11.75-9.19-21.4-20.92-21.97c-2.96-0.14-5.59-1.91-6.85-4.59c-1.26-2.69-0.93-5.85,0.85-8.21
		c2.89-3.84,4.42-8.41,4.42-13.22c0-12.13-9.87-22-22-22c-2.59,0-5.13,0.44-7.53,1.32c-2.07,0.76-4.35,0.63-6.32-0.35
		c-1.97-0.99-3.45-2.74-4.09-4.84c-2.82-9.35-11.29-15.63-21.06-15.63c-6.1,0-11.77,2.45-15.97,6.89c-1.75,1.85-4.28,2.77-6.81,2.45
		s-4.75-1.82-5.99-4.04c-3.89-6.97-11.26-11.3-19.23-11.3c-5.5,0-10.78,2.06-14.85,5.79c-3.06,2.81-7.76,2.81-10.82,0
		c-4.07-3.73-9.35-5.79-14.87-5.79c-0.33,0-0.66,0-0.99,0.02c-0.33,0.02-0.65,0.02-0.97,0c-0.33-0.02-0.66-0.02-0.99-0.02
		c-5.52,0-10.81,2.06-14.88,5.79c-3.06,2.81-7.76,2.81-10.82,0c-4.06-3.73-9.34-5.79-14.85-5.79c-7.96,0-15.32,4.33-19.21,11.3
		c-1.24,2.22-3.47,3.72-6,4.04s-5.05-0.59-6.8-2.45c-4.2-4.44-9.88-6.89-15.99-6.89c-9.61,0-18.27,6.43-21.05,15.63
		c-0.64,2.1-2.11,3.85-4.08,4.83c-1.97,0.99-4.25,1.12-6.32,0.37c-2.41-0.88-4.95-1.33-7.54-1.33c-12.13,0-22,9.87-22,22
		c0,4.82,1.53,9.38,4.42,13.21c1.78,2.37,2.11,5.53,0.86,8.21c-1.26,2.69-3.9,4.46-6.86,4.6c-11.73,0.57-20.92,10.22-20.92,21.97
		c0,5.32,1.94,10.46,5.45,14.48c1.63,1.86,2.3,4.36,1.84,6.79c-0.47,2.42-2.03,4.49-4.23,5.61c-7.44,3.78-12.06,11.3-12.06,19.62
		c0,9.09,5.47,17.13,13.94,20.47c3.1,1.22,5.12,4.24,5.06,7.57c-0.05,3.34-2.17,6.29-5.31,7.41c-8.74,3.11-14.62,11.44-14.62,20.72
		c0,5.45,2.03,10.62,5.54,14.59c6.75-8.13,16.51-13.66,27.55-14.91c2.6-28.01,6.75-55.89,12.44-83.39l0.04-0.16
		c1.24-6.01,6.15-10.67,12.2-11.59c0.17-0.03,0.33-0.05,0.49-0.08c6.32-1.11,12.59,2.07,15.61,7.91
		c3.8,7.35,11.29,11.92,19.56,11.92c6.1,0,11.77-2.45,15.98-6.89c1.75-1.85,4.27-2.76,6.8-2.45c2.53,0.32,4.75,1.82,5.99,4.04
		c3.9,6.97,11.26,11.3,19.22,11.3c5.51,0,10.78-2.06,14.86-5.79c3.06-2.81,7.76-2.81,10.82,0c4.06,3.73,9.35,5.79,14.87,5.79
		c0.36,0,0.73-0.01,1.09-0.03c0.26-0.01,0.51-0.01,0.77,0C211.097,144.444,211.457,144.454,211.827,144.454z M396.937,185.684
		c8,7.08,12.86,17.39,12.86,28.48c0,11.35-5.09,21.98-13.62,29.13c1.19,3.88,1.83,8,1.83,12.27c0,20.43-14.65,37.48-34,41.23v33.75
		c0,17.51-7.19,34.7-19.73,47.16c-12.33,12.26-28.48,19-45.49,19c-0.13,0-0.26,0-0.38,0c-11.26-0.07-22.05-2.95-31.66-8.41
		c-11.55,19.96-32.76,32.41-56.37,32.41c-23.62,0-44.83-12.45-56.38-32.41c-9.61,5.46-20.39,8.34-31.65,8.41
		c-17.13,0.09-33.45-6.65-45.88-19c-12.54-12.46-19.73-29.65-19.73-47.16v-33.75c-19.35-3.75-34-20.8-34-41.23
		c0-4.25,0.64-8.36,1.82-12.24c-8.54-7.14-13.65-17.79-13.65-29.16c0-11.1,4.86-21.4,12.86-28.48
		c-7.49-7.02-11.93-16.93-11.93-27.69c0-11.32,4.95-21.79,13.33-28.91c-2.82-5.39-4.33-11.42-4.33-17.59
		c0-16.23,10.15-30.14,24.57-35.56c-1.36-3.96-2.07-8.14-2.07-12.43c0-20.95,17.05-38,38-38c1.87,0,3.73,0.14,5.56,0.4
		c6.52-12.15,19.17-19.9,33.43-19.9c7.24,0,14.32,2.1,20.37,5.93c7.09-7.51,17.05-11.93,27.63-11.93c7.24,0,14.24,2.05,20.27,5.86
		c6.43-4.07,14.01-6.16,21.75-5.83c0.49-0.02,0.98-0.03,1.48-0.03c7.24,0,14.25,2.05,20.28,5.86c6.03-3.81,13.03-5.86,20.26-5.86
		c10.57,0,20.53,4.41,27.62,11.91c6.03-3.85,13.02-5.91,20.38-5.91c14.27,0,26.92,7.75,33.44,19.9c1.83-0.27,3.69-0.4,5.56-0.4
		c20.95,0,38,17.05,38,38c0,4.29-0.7,8.47-2.07,12.42c14.42,5.43,24.57,19.34,24.57,35.57c0,6.17-1.5,12.2-4.32,17.6
		c8.37,7.12,13.32,17.58,13.32,28.9C408.867,168.754,404.437,178.654,396.937,185.684z M363.987,280.314
		c10.44-3.38,18.02-13.19,18.02-24.75c0-12.24-8.51-22.53-19.93-25.27C363.267,246.944,363.907,263.634,363.987,280.314z
		 M348.007,330.544v-46.57c0-49.64-5.03-99.47-14.97-148.11c-6.83,11.52-19.15,18.59-32.67,18.59c-7.23,0-14.31-2.1-20.36-5.93
		c-7.09,7.51-17.05,11.93-27.63,11.93c-7.24,0-14.24-2.05-20.27-5.86c-6.03,3.81-13.03,5.86-20.28,5.86c-0.49,0-0.99-0.01-1.48-0.03
		c-0.49,0.02-0.98,0.03-1.47,0.03c-7.25,0-14.26-2.05-20.29-5.86c-6.02,3.81-13.02,5.86-20.26,5.86c-10.58,0-20.54-4.42-27.64-11.93
		c-6.04,3.83-13.12,5.93-20.35,5.93c-13.52,0-25.84-7.07-32.67-18.59c-9.91,48.59-14.93,98.34-14.93,147.92v46.76
		c0,13.28,5.47,26.33,15.01,35.82c9.38,9.32,21.6,14.4,34.5,14.34c10.98-0.07,21.35-3.68,30-10.45c1.42-1.11,3.16-1.7,4.93-1.7
		c0.7,0,1.4,0.09,2.09,0.28c2.44,0.66,4.42,2.43,5.35,4.77c7.48,18.9,25.45,31.1,45.76,31.1c20.3,0,38.27-12.2,45.75-31.1
		c0.93-2.34,2.91-4.11,5.35-4.77c2.43-0.66,5.03-0.13,7.02,1.42c8.65,6.77,19.02,10.38,30,10.45c12.91,0.06,25.12-5.02,34.5-14.34
		C342.537,356.874,348.007,343.824,348.007,330.544z M56.757,280.314c0.08-16.68,0.71-33.36,1.89-50.02
		c-11.41,2.75-19.91,13.03-19.91,25.27C38.737,267.124,46.317,276.934,56.757,280.314z"/>
	<path style="fill:#A3A29F;" d="M159.617,226.064c3.13,3.12,3.13,8.19,0,11.31c-3.12,3.13-8.19,3.13-11.31,0
		c-7.51-7.5-19.72-7.5-27.22,0c-1.57,1.56-3.61,2.34-5.66,2.34c-2.05,0-4.09-0.78-5.66-2.34c-3.12-3.12-3.12-8.19,0-11.31
		C123.517,212.314,145.877,212.314,159.617,226.064z"/>
	<path style="fill:#DBCFA9;" d="M157.857,290.654c3.12,3.13,3.12,8.19,0,11.32c-6.87,6.87-15.9,10.3-24.93,10.3
		s-18.05-3.43-24.92-10.3c-3.13-3.13-3.13-8.19,0-11.32c3.12-3.12,8.19-3.12,11.31,0c7.51,7.51,19.72,7.51,27.22,0
		C149.667,287.534,154.727,287.534,157.857,290.654z"/>
	<circle style="fill:#3F7C8E;" cx="132.927" cy="268.494" r="14"/>
</g>
<g>
</g>
<g>
</g>
<g>
</g>
<g>
</g>
<g>
</g>
<g>
</g>
<g>
</g>
<g>
</g>
<g>
</g>
<g>
</g>
<g>
</g>
<g>
</g>
<g>
</g>
<g>
</g>
<g>
</g>
</svg>
