<?xml version="1.0" encoding="UTF-8" standalone="no"?>
<!-- Generator: Gravit.io -->
<svg xmlns="http://www.w3.org/2000/svg" xmlns:xlink="http://www.w3.org/1999/xlink" style="isolation:isolate" viewBox="0 0 800 800" width="800pt" height="800pt"><defs><clipPath id="_clipPath_TCFtrZrTHPZMKIr144Hh1lshEsS9ZWrB"><rect width="800" height="800"/></clipPath></defs><g clip-path="url(#_clipPath_TCFtrZrTHPZMKIr144Hh1lshEsS9ZWrB)"><circle vector-effect="non-scaling-stroke" cx="400" cy="400" r="382" fill="rgb(235,235,235)" stroke-width="3" stroke="rgb(59,74,81)" stroke-linejoin="miter" stroke-linecap="square" stroke-miterlimit="3"/><path d=" M 296.889 651.188 C 272.117 651.188 251.969 631.037 251.969 606.269 C 251.969 581.497 272.117 561.349 296.889 561.349 C 321.657 561.349 341.805 581.497 341.805 606.269 C 341.805 631.037 321.657 651.188 296.889 651.188 Z " fill="rgb(105,124,134)"/><path d=" M 296.889 621.239 C 288.628 621.239 281.915 614.53 281.915 606.269 C 281.915 598.007 288.628 591.294 296.889 591.294 C 305.15 591.294 311.86 598.007 311.86 606.269 C 311.86 614.53 305.15 621.239 296.889 621.239 Z " fill="rgb(70,90,97)"/><path d=" M 508.506 651.188 C 483.739 651.188 463.587 631.037 463.587 606.269 C 463.587 581.497 483.739 561.349 508.506 561.349 C 533.274 561.349 553.426 581.497 553.426 606.269 C 553.426 631.037 533.274 651.188 508.506 651.188 Z " fill="rgb(89,108,118)"/><path d=" M 508.506 621.239 C 500.245 621.239 493.532 614.53 493.532 606.269 C 493.532 598.007 500.245 591.294 508.506 591.294 C 516.768 591.294 523.477 598.007 523.477 606.269 C 523.477 614.53 516.768 621.239 508.506 621.239 Z " fill="rgb(59,74,81)"/><path d=" M 555.82 546.374 C 555.82 554.76 549.232 561.349 540.849 561.349 L 254.367 561.349 C 229.509 561.349 209.447 541.282 209.447 516.429 C 209.447 493.672 226.215 474.803 248.375 472.109 C 250.172 471.509 252.269 471.509 254.367 471.509 C 257.958 471.509 261.552 473.01 263.95 475.403 L 254.963 501.458 C 254.667 501.458 254.667 501.458 254.367 501.458 C 245.981 501.458 239.392 508.043 239.392 516.429 C 239.392 524.815 245.981 531.403 254.367 531.403 L 540.849 531.403 C 549.232 531.403 555.82 537.988 555.82 546.374 L 555.82 546.374 Z " fill="rgb(70,90,97)"/><path d=" M 201.607 261.923 C 202.558 263.119 218.683 270.402 234.917 277.533 C 234.975 276.242 235.139 274.964 234.847 273.646 L 221.673 213.751 C 220.164 206.878 214.082 201.997 207.049 201.997 L 117.213 201.997 C 108.937 201.997 102.239 208.695 102.239 216.971 C 102.239 225.244 108.937 231.942 117.213 231.942 L 195.014 231.942 L 201.607 261.923 Z " fill="rgb(70,90,97)"/><path d=" M 555.82 546.374 C 555.82 554.76 549.232 561.349 540.849 561.349 L 400 561.349 L 400 531.403 L 540.849 531.403 C 549.232 531.403 555.82 537.988 555.82 546.374 Z " fill="rgb(59,74,81)"/><path d=" M 610.323 267.88 C 607.329 263.985 603.134 261.888 598.342 261.888 L 201.658 261.888 L 248.375 472.109 L 254.963 501.458 L 538.452 501.458 C 545.04 501.458 551.029 496.963 552.826 490.674 L 612.717 281.053 C 613.917 276.562 613.017 271.47 610.323 267.88 L 610.323 267.88 Z " fill="rgb(253,191,0)"/><path d=" M 612.717 281.053 L 552.826 490.674 C 551.029 496.963 545.04 501.458 538.452 501.458 L 400 501.458 L 400 261.888 L 598.342 261.888 C 603.134 261.888 607.329 263.985 610.323 267.88 C 613.017 271.47 613.917 276.562 612.717 281.053 Z " fill="rgb(255,159,0)"/></g></svg>